<svg xmlns="http://www.w3.org/2000/svg" viewBox="0 0 100 100" width="400" height="400">
  <rect width="100" height="100" fill="#f8f9fa"/>
  <rect x="5" y="5" width="90" height="90" fill="none" stroke="#343a40" stroke-width="2"/>
  
  <g fill="#adb5bd">
    <rect x="10" y="15" width="4" height="30" rx="1"/>
    <rect x="18" y="15" width="4" height="30" rx="1"/>
    <rect x="26" y="15" width="4" height="30" rx="1"/>
    <rect x="34" y="15" width="4" height="30" rx="1"/>
    <rect x="42" y="15" width="4" height="30" rx="1"/>
    <rect x="50" y="15" width="4" height="30" rx="1"/>
    <rect x="58" y="15" width="4" height="30" rx="1"/>
    <rect x="66" y="15" width="4" height="30" rx="1"/>
    <rect x="74" y="15" width="4" height="30" rx="1"/>
    <rect x="82" y="15" width="4" height="30" rx="1"/>

    <rect x="10" y="55" width="4" height="30" rx="1"/>
    <rect x="18" y="55" width="4" height="30" rx="1"/>
    <rect x="26" y="55" width="4" height="30" rx="1"/>
    <rect x="34" y="55" width="4" height="30" rx="1"/>
    <rect x="42" y="55" width="4" height="30" rx="1"/>
    <rect x="50" y="55" width="4" height="30" rx="1"/>
    <rect x="58" y="55" width="4" height="30" rx="1"/>
    <rect x="66" y="55" width="4" height="30" rx="1"/>
    <rect x="74" y="55" width="4" height="30" rx="1"/>
    <rect x="82" y="55" width="4" height="30" rx="1"/>
  </g>
  
  <path d="M 7 10 L 15 10 L 15 48 L 22 48 L 22 10 L 30 10 L 30 48 L 38 48 L 38 10 L 46 10 L 46 48 L 54 48 L 54 10 L 62 10 L 62 48 L 70 48 L 70 10 L 78 10 L 78 48 L 86 48 L 86 10 L 92 10 L 92 90 L 86 90 L 86 52 L 78 52 L 78 90 L 70 90 L 70 52 L 62 52 L 62 90 L 54 90 L 54 52 L 46 52 L 46 90 L 38 90 L 38 52 L 30 52 L 30 90 L 22 90 L 22 52 L 15 52 L 15 90 L 7 90 Z" fill="none" stroke="#0d6efd" stroke-width="1"/>
  <circle cx="7" cy="10" r="2" fill="#dc3545"/>
  <text x="50" y="8" font-family="sans-serif" font-size="5" text-anchor="middle" fill="#0d6efd">超长密集轨迹</text>
</svg>